<svg xmlns="http://www.w3.org/2000/svg" viewBox="0 0 200 200" width="200" height="200">
  <path fill="#9c3f12" d="M44.7,-76.4C58.1,-69.2,69.2,-58.1,77.3,-44.7C85.4,-31.3,90.5,-15.7,89.2,-0.8C87.8,14.1,80,28.2,71.2,40.8C62.4,53.4,52.6,64.5,40.1,72.4C27.6,80.3,12.3,85,0.1,84.8C-12.1,84.6,-26.7,79.5,-39.8,72C-52.9,64.5,-64.5,54.6,-73.4,42.4C-82.3,30.2,-88.4,15.7,-89.1,-0.4C-89.8,-16.5,-85.1,-34.2,-74.6,-45.1C-64.1,-56,-47.8,-60.1,-34.1,-67.2C-20.4,-74.3,-9.3,-84.4,2.9,-89.4C15.1,-94.4,28.9,-94.3,44.7,-76.4Z" transform="translate(100 100)"></path>
</svg>